<?xml version="1.0" standalone="no"?>
<!DOCTYPE svg PUBLIC "-//W3C//DTD SVG 20010904//EN"
 "http://www.w3.org/TR/2001/REC-SVG-20010904/DTD/svg10.dtd">
<svg version="1.0" xmlns="http://www.w3.org/2000/svg"
 width="225.000000pt" height="225.000000pt" viewBox="0 0 225.000000 225.000000"
 preserveAspectRatio="xMidYMid meet">

<g transform="translate(0.000000,225.000000) scale(0.100000,-0.100000)"
fill="#000000" stroke="none">
<path d="M1342 1815 c-118 -37 -210 -150 -215 -266 l-2 -44 40 3 c75 7 161 74
206 161 23 45 40 162 23 160 -5 0 -28 -6 -52 -14z"/>
<path d="M1300 1476 c-25 -8 -72 -24 -104 -36 l-60 -22 -94 32 c-77 27 -105
32 -160 28 -148 -8 -265 -112 -308 -273 -21 -77 -18 -227 7 -326 40 -161 157
-360 250 -425 53 -36 120 -38 194 -4 75 33 148 37 220 10 93 -34 126 -40 169
-30 51 11 80 34 139 106 46 56 137 222 137 248 0 7 -22 27 -48 44 -88 57 -131
141 -132 258 0 60 5 81 31 132 17 34 48 77 70 95 21 19 39 39 39 44 0 18 -72
75 -126 100 -65 29 -162 38 -224 19z"/>
</g>
</svg>
