<?xml version="1.0" standalone="no"?>
<!DOCTYPE svg PUBLIC "-//W3C//DTD SVG 20010904//EN"
 "http://www.w3.org/TR/2001/REC-SVG-20010904/DTD/svg10.dtd">
<svg version="1.0" xmlns="http://www.w3.org/2000/svg"
 width="400.000000pt" height="400.000000pt" viewBox="0 0 400.000000 400.000000"
 preserveAspectRatio="xMidYMid meet">

<g transform="translate(0.000000,400.000000) scale(0.100000,-0.100000)"
fill="#000000" stroke="none">
<path d="M1878 3779 c-492 -35 -937 -263 -1248 -639 -44 -53 -100 -128 -125
-167 -43 -67 -50 -93 -23 -93 6 0 39 -18 74 -40 35 -22 66 -40 70 -40 3 0 18
-8 32 -18 15 -11 56 -35 92 -54 36 -20 88 -49 115 -66 28 -17 73 -43 100 -58
28 -14 58 -32 69 -40 17 -11 22 -7 60 49 58 88 167 200 261 269 83 62 236 143
302 160 137 36 216 48 328 48 263 0 462 -65 678 -223 63 -46 71 -49 114 -44
44 5 53 12 235 195 185 184 190 191 195 237 6 47 6 47 -55 105 -123 117 -362
255 -563 325 -132 46 -237 71 -384 90 -124 16 -159 16 -327 4z"/>
<path d="M2173 2300 c-40 -9 -60 -25 -79 -61 -20 -40 -20 -504 0 -554 27 -65
28 -65 495 -65 256 0 422 -4 426 -10 3 -5 -8 -38 -24 -74 -69 -152 -222 -334
-363 -430 -43 -29 -74 -57 -70 -61 4 -5 2 -5 -5 -2 -6 4 -33 -4 -60 -17 -131
-65 -304 -114 -415 -117 -46 -1 -115 -16 -85 -18 13 -1 16 -5 9 -19 -5 -9 -8
-159 -7 -332 l2 -315 74 -3 c191 -8 473 61 699 170 184 89 345 203 494 351 73
73 152 161 176 197 23 36 51 74 61 85 36 41 156 293 193 407 69 214 91 372 84
608 -4 127 -8 163 -24 196 -35 72 5 69 -814 71 -404 0 -750 -2 -767 -7z"/>
</g>
</svg>
